<svg width="20" height="20" viewBox="0 0 20 20" fill="none" xmlns="http://www.w3.org/2000/svg">
<path d="M9.25914 14.2975L7.39997 12.155C7.38029 12.1324 7.35596 12.1142 7.32863 12.1019C7.3013 12.0895 7.27163 12.0832 7.24163 12.0833H5.99163L3.11663 14.7692L3.10913 14.7775C2.72132 15.1689 2.5043 15.6979 2.50559 16.2488C2.50687 16.7998 2.72635 17.3278 3.11598 17.7173C3.50562 18.1069 4.0337 18.3262 4.58465 18.3273C5.1356 18.3284 5.66457 18.1113 6.0558 17.7233L6.0633 17.715L9.25914 14.2975ZM13.3291 9.97585C13.5775 9.79918 13.9316 9.70085 14.36 9.67418C15.7116 9.59168 17.2041 8.93168 18.0675 8.06835C18.7707 7.36508 19.1658 6.41125 19.1658 5.41668C19.1658 4.42211 18.7707 3.46828 18.0675 2.76501C17.3642 2.06175 16.4104 1.66666 15.4158 1.66666C14.4212 1.66666 13.4674 2.06175 12.7641 2.76501C12.0191 3.51001 11.425 4.72335 11.2233 5.91085C11.2408 6.04418 11.25 6.17918 11.25 6.31501V8.07585C11.2499 8.1057 11.2563 8.13521 11.2687 8.16239C11.281 8.18956 11.2991 8.21376 11.3216 8.23335L13.3291 9.97585ZM13.5416 5.00001C13.7074 5.00001 13.8664 5.06586 13.9836 5.18307C14.1008 5.30028 14.1666 5.45925 14.1666 5.62501C14.1666 6.20001 14.6333 6.66668 15.2083 6.66668C15.3741 6.66668 15.533 6.73253 15.6502 6.84974C15.7675 6.96695 15.8333 7.12592 15.8333 7.29168C15.8333 7.45744 15.7675 7.61641 15.6502 7.73362C15.533 7.85083 15.3741 7.91668 15.2083 7.91668C14.6005 7.91668 14.0176 7.67524 13.5878 7.24547C13.1581 6.8157 12.9166 6.2328 12.9166 5.62501C12.9166 5.45925 12.9825 5.30028 13.0997 5.18307C13.2169 5.06586 13.3759 5.00001 13.5416 5.00001ZM4.14663 2.33835C4.35945 2.12543 4.61213 1.95653 4.89024 1.8413C5.16834 1.72606 5.46643 1.66675 5.76747 1.66675C6.0685 1.66675 6.36659 1.72606 6.6447 1.8413C6.92281 1.95653 7.17549 2.12543 7.3883 2.33835L9.74497 4.69585C10.1745 5.12557 10.4158 5.70827 10.4158 6.31585V8.07668C10.4158 8.37835 10.5466 8.66585 10.7741 8.86335L16.7508 14.05L16.7666 14.0667C17.0019 14.2982 17.1889 14.5739 17.317 14.8781C17.4452 15.1822 17.5118 15.5087 17.5131 15.8387C17.5144 16.1687 17.4503 16.4957 17.3246 16.8009C17.1989 17.106 17.0141 17.3832 16.7807 17.6166C16.5473 17.8499 16.27 18.0347 15.9648 18.1603C15.6597 18.286 15.3327 18.3499 15.0026 18.3486C14.6726 18.3472 14.3461 18.2805 14.042 18.1523C13.7379 18.0241 13.4622 17.837 13.2308 17.6017L13.2158 17.5858L8.0283 11.6092C7.93047 11.4966 7.80961 11.4064 7.67389 11.3446C7.53818 11.2827 7.39077 11.2508 7.24163 11.2508H5.48497C4.87739 11.2508 4.29469 11.0095 3.86497 10.58L1.50497 8.22251C1.29205 8.0097 1.12315 7.75702 1.00792 7.47891C0.892685 7.2008 0.833374 6.90272 0.833374 6.60168C0.833374 6.30064 0.892685 6.00256 1.00792 5.72445C1.12315 5.44634 1.29205 5.19366 1.50497 4.98085L4.14663 2.33835ZM6.06663 4.14168C5.94816 4.03128 5.79145 3.97118 5.62953 3.97403C5.46761 3.97689 5.31313 4.04248 5.19862 4.15699C5.08411 4.27151 5.01851 4.42599 5.01566 4.58791C5.0128 4.74983 5.0729 4.90653 5.1833 5.02501L7.26663 7.10835C7.38511 7.21875 7.54182 7.27885 7.70374 7.27599C7.86565 7.27314 8.02014 7.20754 8.13465 7.09303C8.24916 6.97852 8.31476 6.82403 8.31761 6.66212C8.32047 6.5002 8.26037 6.34349 8.14997 6.22501L6.06663 4.14168ZM3.3083 6.01668C3.19126 6.13387 3.12552 6.29272 3.12552 6.45835C3.12552 6.62397 3.19126 6.78282 3.3083 6.90001L5.39163 8.98335C5.44885 9.04475 5.51785 9.094 5.59452 9.12816C5.67119 9.16232 5.75395 9.18069 5.83787 9.18217C5.92178 9.18365 6.00514 9.16822 6.08297 9.13678C6.16079 9.10535 6.23148 9.05856 6.29083 8.99921C6.35018 8.93986 6.39697 8.86917 6.4284 8.79134C6.45984 8.71352 6.47527 8.63016 6.47379 8.54624C6.47231 8.46233 6.45395 8.37956 6.41979 8.3029C6.38563 8.22623 6.33637 8.15723 6.27497 8.10001L4.19163 6.01668C4.07445 5.89964 3.91559 5.8339 3.74997 5.8339C3.58434 5.8339 3.42549 5.89964 3.3083 6.01668Z" fill="white"/>
</svg>
