<svg width="200" height="56" viewBox="0 0 200 56" fill="none" xmlns="http://www.w3.org/2000/svg">
<path d="M21.0106 9.96709C20.6811 10.851 20.53 12.4782 20.4957 13.1813C20.4099 14.1691 20.3412 16.4358 20.7531 17.6009C21.165 18.7661 22.6067 19.4927 23.276 19.7103C23.6879 19.7605 24.7589 19.7906 25.7475 19.5094C26.736 19.2281 28.0887 17.9462 28.3219 17.1992C28.6875 16.0275 28.8939 14.4278 28.3219 12.5284C27.8396 10.9272 26.7601 8.8622 26.1594 8.05863C25.6788 7.43922 24.5426 6.25062 23.8424 6.45151C22.9671 6.70262 22.5552 7.15463 22.0918 7.60663C21.6284 8.05863 21.4225 8.8622 21.0106 9.96709Z" fill="#F27273"/>
<path fill-rule="evenodd" clip-rule="evenodd" d="M24.9416 1.57962C24.3907 2.013 24.3365 2.93612 24.8389 3.33132C25.2408 3.64745 25.6548 3.59915 26.0659 3.18806C26.3613 2.89267 26.4168 2.76345 26.4168 2.37156C26.4168 1.97832 26.3675 1.86438 26.0992 1.63876C25.7181 1.31798 25.3013 1.29672 24.9416 1.57962ZM28.6875 2.18433C28.6875 2.46104 28.6585 2.8326 28.623 3.01002C28.5669 3.29034 28.5871 3.33256 28.7778 3.33256C28.9649 3.33256 28.9971 3.27187 28.9971 2.91971C28.9971 2.6526 29.0439 2.50687 29.1295 2.50687C29.2023 2.50687 29.5696 2.76231 29.9457 3.07453C30.3219 3.38674 30.6515 3.64219 30.6781 3.64219C30.7668 3.64219 30.9835 1.99938 30.9174 1.82733C30.8139 1.55753 30.5456 1.85065 30.5437 2.23563C30.5406 2.86532 30.4096 2.89628 29.7854 2.4147C29.4722 2.17298 29.161 1.90907 29.0938 1.82826C28.842 1.52471 28.6875 1.66012 28.6875 2.18433ZM25.9023 1.99236C26.1334 2.22345 26.0985 2.62422 25.8193 2.94551C25.5166 3.29385 24.8687 3.09331 24.8687 2.65126C24.8687 1.92145 25.4567 1.5467 25.9023 1.99236ZM21.0647 2.25637C20.395 2.43648 20.3274 2.47508 20.3274 2.67686C20.3274 2.80298 20.4078 2.82104 20.7282 2.76696L21.1291 2.69915L21.2533 3.24813C21.4514 4.12398 21.4669 4.15824 21.6632 4.15824C21.8382 4.15824 21.8413 4.11768 21.7115 3.51318C21.5096 2.57137 21.5162 2.53917 21.9271 2.46207C22.1434 2.42151 22.2884 2.33399 22.2884 2.2442C22.2884 2.0516 21.8079 2.05635 21.0647 2.25637ZM33.4884 2.41769C33.2821 2.97163 33.0576 4.12398 33.1371 4.22162C33.2151 4.31739 34.1932 4.57109 34.4845 4.57109C34.5318 4.57109 34.5705 4.4782 34.5705 4.36467C34.5705 4.23256 34.5017 4.15824 34.3795 4.15824C33.9746 4.15824 33.5384 3.93417 33.5384 3.7262C33.5384 3.54156 33.5827 3.52845 33.977 3.59616C34.6525 3.71206 34.7148 3.70618 34.7528 3.52319C34.7794 3.3952 34.6851 3.33524 34.3756 3.28291C33.5468 3.14285 33.5432 2.66571 34.3717 2.77563C34.7935 2.83157 34.8801 2.81547 34.8801 2.68109C34.8801 2.4628 34.8195 2.43596 34.1331 2.35061C33.6761 2.29374 33.529 2.30912 33.4884 2.41769ZM17.3436 3.2374C16.8167 3.45073 16.6609 4.00095 17.0246 4.36467C17.1768 4.5168 17.3686 4.57109 17.7539 4.57109C18.2633 4.57109 18.2761 4.57842 18.2442 4.8544C18.2184 5.07837 18.1466 5.14886 17.9019 5.19087C17.5446 5.25218 17.4784 5.53539 17.8103 5.58266C18.0667 5.6193 18.6276 5.18003 18.7057 4.88155C18.7964 4.53445 18.4763 4.26507 17.9122 4.21418C17.634 4.189 17.3564 4.11851 17.2952 4.0573C17.1392 3.90125 17.339 3.61092 17.6537 3.53671C17.9258 3.47241 17.9947 3.19374 17.7471 3.15865C17.662 3.14657 17.4804 3.18207 17.3436 3.2374ZM13.7604 4.97547C13.5262 5.08178 13.304 5.21822 13.2667 5.2785C13.2295 5.33887 13.437 5.81055 13.7281 6.32681C14.2428 7.23981 14.5266 7.46347 14.4662 6.9083C14.4376 6.64532 14.4556 6.63531 14.9565 6.63531C15.3499 6.63531 15.4765 6.59764 15.4765 6.48049C15.4765 6.36871 15.3618 6.32567 15.0636 6.32567C14.6149 6.32567 14.571 6.26416 14.8023 5.95835C15.0372 5.64779 15.0009 5.12719 14.731 4.93821C14.4372 4.73241 14.2826 4.73829 13.7604 4.97547ZM40.2699 5.21605C39.8679 5.81024 39.3182 6.79219 39.3182 6.91604C39.3182 6.97147 39.502 7.09976 39.7268 7.20101C40.3876 7.49908 41.0601 7.249 41.0695 6.70178C41.0713 6.5964 41.1889 6.41887 41.3308 6.3072C41.4727 6.19563 41.5888 5.99777 41.5888 5.86762C41.5888 5.56965 41.2476 5.12946 40.8622 4.93016C40.5703 4.77916 40.5632 4.78267 40.2699 5.21605ZM14.5889 5.32174C14.6704 5.45096 14.6456 5.56088 14.4868 5.7736C14.192 6.16848 14.0673 6.17839 13.8828 5.82128C13.6635 5.39719 13.6775 5.3269 14.0057 5.20759C14.3515 5.08188 14.4497 5.10108 14.5889 5.32174ZM40.9872 5.46438C41.3468 5.7898 41.1763 6.11925 40.6483 6.11925C40.3651 6.11925 40.3039 5.8732 40.5092 5.55995C40.7149 5.24598 40.7403 5.24093 40.9872 5.46438ZM22.3151 6.43931C21.0716 7.05476 19.9865 9.01752 19.1251 12.2087C18.8613 13.1859 18.8542 16.2428 19.1146 16.719C19.2953 17.3693 19.3705 17.3387 18.547 17.4691C14.8856 18.0488 11.2243 18.953 10.05 19.5675C9.65278 19.7755 9.123 20.3365 8.95837 20.7236C8.86043 20.9539 8.81254 22.3188 8.77146 26.0498L8.71614 31.0664L8.37028 31.3573C6.90097 32.5932 6.35921 34.0199 6.69785 35.7611C7.23207 38.5087 10.4955 41.6196 15.4249 44.0805C19.9313 46.3302 24.9389 47.769 30.2872 48.3507C32.1633 48.5548 36.11 48.5286 37.5381 48.3026C41.1722 47.7277 43.3986 46.6963 44.6374 45.0135C45.2629 44.1638 45.4471 43.4911 45.384 42.2856C45.3406 41.4548 45.2838 41.2274 44.9324 40.4751C44.7113 40.0019 44.3779 39.4142 44.1915 39.169C43.8797 38.7588 43.8611 38.6929 43.9588 38.3415C44.2193 37.4034 44.0066 34.9262 43.6068 34.2441C43.0959 33.3723 42.0544 32.9798 35.7058 31.2659C34.5421 30.9517 32.1038 30.323 30.2872 29.8685C27.209 29.0987 26.0586 28.8212 23.8366 28.3132C23.354 28.203 22.5413 28.0164 22.0304 27.8986C21.5195 27.781 20.8692 27.6409 20.5854 27.5875C19.7877 27.4372 18.56 27.1775 18.1599 27.0743C17.9613 27.0231 17.1622 26.8312 16.3842 26.6479C14.6573 26.2412 14.0788 25.9517 13.7236 25.3165C13.4796 24.8803 13.4646 24.7672 13.4758 23.4587C13.486 22.2705 13.5207 21.9906 13.7117 21.558C13.8349 21.279 14.0153 20.9901 14.1125 20.9162C14.4512 20.659 15.5235 20.7511 17.4375 21.2017C18.7316 21.5064 23.3534 22.7695 25.1267 23.3032C25.6376 23.4568 26.311 23.6505 26.6232 23.7334C27.8292 24.0536 31.1165 25.1004 36.7895 26.9705C43.1132 29.0551 44.0587 29.321 44.7134 29.1982C45.9039 28.9748 45.7044 27.8976 43.7567 24.0341C42.5145 21.5702 41.5357 19.8286 39.1476 15.8339C36.8449 11.9819 36.5123 11.5375 35.5757 11.0597C34.4984 10.5101 32.8296 10.7996 31.1981 11.8192C30.5247 12.24 29.3715 13.3901 29.2551 13.757C29.1514 14.0838 28.9578 13.9477 28.8762 13.4907C28.8365 13.2682 28.7107 12.8305 28.5965 12.5183C28.4825 12.2061 28.3138 11.7437 28.2218 11.4908C28.1298 11.2378 27.7211 10.3811 27.3136 9.58704C26.6651 8.32332 26.4688 8.03867 25.7402 7.30329C25.0618 6.61879 24.819 6.44086 24.4296 6.34281C23.673 6.15228 22.8159 6.1914 22.3151 6.43931ZM23.9398 6.48049C24.6622 6.68691 24.9101 6.84636 25.3847 7.25457C26.1838 7.94185 26.5793 8.95157 26.8898 9.52522C26.9974 9.7239 27.1386 9.95612 27.2036 10.0413C27.2685 10.1264 27.4692 10.5444 27.6494 10.9702C27.8297 11.3959 28.021 11.8371 28.0746 11.9507C28.2128 12.2432 28.6038 13.7362 28.6601 14.1864C28.6861 14.3943 28.628 14.8355 28.531 15.1669C28.434 15.4983 28.3483 15.9978 28.3405 16.2768L28.3262 16.784L26.4168 16.7628C24.3418 16.7398 21.1404 16.9029 20.8621 17.046C20.7667 17.095 20.4467 17.1659 20.151 17.2036C19.6373 17.2689 19.6068 17.2592 19.4671 16.9852C19.2385 16.5368 19.1021 15.0986 19.1146 14.5826C19.1608 12.6893 19.434 11.8246 19.71 10.9769C20.5428 8.419 21.5624 6.91057 22.741 6.49257C22.9482 6.43931 23.0209 6.43733 23.2173 6.42889C23.4646 6.41826 23.6187 6.38876 23.9398 6.48049ZM40.5029 6.48658C40.6636 6.60796 40.6833 6.67876 40.5955 6.81871C40.3315 7.23981 39.7014 6.97312 39.934 6.5387C40.0679 6.28842 40.222 6.27428 40.5029 6.48658ZM10.2853 7.43953C10.075 7.65483 9.90306 7.89345 9.90306 7.96993C9.90306 8.13734 11.013 9.42201 11.1576 9.42201C11.2933 9.42201 12.2769 8.58868 12.2769 8.4737C12.2769 8.2198 11.9249 8.2873 11.5983 8.60385C11.2588 8.93289 11.2349 8.94011 11.0633 8.76558C10.8921 8.59167 10.902 8.56804 11.2706 8.26996C11.6602 7.95496 11.7778 7.66742 11.5171 7.66742C11.4397 7.66742 11.1968 7.81006 10.9774 7.98448C10.5936 8.28947 10.5749 8.2937 10.4864 8.09533C10.4143 7.9336 10.4625 7.81625 10.7099 7.55151C11.0196 7.2202 11.0487 7.04815 10.7952 7.04815C10.7249 7.04815 10.4955 7.22423 10.2853 7.43953ZM43.4471 7.92472C42.908 8.17924 42.4513 8.43438 42.4322 8.49187C42.3679 8.68456 42.7232 8.72389 42.9841 8.55297C43.2662 8.36812 43.4654 8.42437 43.7871 8.77983C43.94 8.94868 43.9504 9.0264 43.8498 9.24727C43.7277 9.51531 43.7782 9.83485 43.9427 9.83485C44.0725 9.83485 44.7191 7.80169 44.6482 7.61664C44.5652 7.40062 44.5471 7.40526 43.4471 7.92472ZM44.1691 8.23508C44.1691 8.32023 44.0995 8.3899 44.0143 8.3899C43.8531 8.3899 43.8095 8.2678 43.9283 8.1491C44.047 8.03031 44.1691 8.07386 44.1691 8.23508ZM7.79756 9.92124C7.76825 9.96882 7.92616 10.1854 8.14848 10.4025C8.37079 10.6197 8.5349 10.8262 8.51312 10.8615C8.49124 10.8968 8.05197 11.0401 7.53685 11.1801C7.02183 11.3201 6.60052 11.4578 6.60072 11.4862C6.60134 11.576 7.80933 12.5183 7.92368 12.5183C8.19038 12.5183 8.14321 12.2702 7.8245 11.9966C7.40453 11.6359 7.46419 11.575 8.48205 11.3255C8.86724 11.2312 9.20928 11.1104 9.2422 11.0573C9.31001 10.9474 8.16231 9.84466 7.97395 9.83867C7.90634 9.8366 7.82697 9.87376 7.79756 9.92124ZM45.8979 10.8048C45.5714 11.1061 45.3044 11.4031 45.3044 11.465C45.3044 11.6745 45.523 11.7136 45.7164 11.5387C45.8408 11.4261 45.9867 11.3891 46.129 11.4342C46.3074 11.4909 46.3381 11.5608 46.2911 11.8048C46.2593 11.9702 46.2064 12.2448 46.1736 12.4151C46.1235 12.6738 46.1469 12.7248 46.3152 12.7248C46.4713 12.7248 46.5318 12.6292 46.5847 12.299C46.694 11.6155 46.8041 11.4862 47.2767 11.4862C47.6179 11.4862 47.6872 11.4535 47.6591 11.3056C47.632 11.1632 47.4995 11.1185 47.0322 11.094C46.7064 11.077 46.4398 11.0335 46.4398 10.9975C46.4398 10.9614 46.5375 10.8278 46.657 10.7006C46.8724 10.4714 46.8506 10.2434 46.6143 10.2523C46.5467 10.2549 46.2244 10.5036 45.8979 10.8048ZM35.3877 11.5851C36.1373 11.9676 36.4155 12.3654 39.288 17.1628C41.181 20.3245 42.2689 22.2698 43.3282 24.3876C44.4371 26.6044 44.9244 27.8308 44.8734 28.276C44.84 28.5675 44.8397 28.5676 44.1105 28.5482C43.7093 28.5375 43.1055 28.4393 42.7688 28.33C42.4321 28.2205 41.7385 28.0036 41.2276 27.848C40.7167 27.6923 40.2058 27.5255 40.0923 27.4773C39.6356 27.2834 31.5842 24.6713 29.4615 24.0285C28.2127 23.6503 27.098 23.3028 26.9845 23.2564C26.871 23.21 26.4762 23.091 26.1072 22.9919C25.7382 22.8928 25.1577 22.732 24.8171 22.6346C24.4765 22.5371 23.594 22.2876 22.856 22.0798C22.1181 21.8721 21.375 21.6586 21.2047 21.6051C20.426 21.3611 17.177 20.5532 16.2171 20.365C14.9902 20.1243 14.7115 20.1115 14.2275 20.2732C13.2552 20.5982 12.9595 21.3614 12.9533 23.5619C12.9493 24.9552 12.9669 25.094 13.2064 25.5737C13.5272 26.2159 14.0246 26.5631 15.1152 26.9065C15.7464 27.1051 21.2812 28.3572 23.0109 28.6925C23.5102 28.7893 28.0288 29.8589 29.0487 30.1217C29.6164 30.268 30.4292 30.473 30.8549 30.5773C31.2806 30.6815 32.0702 30.8837 32.6095 31.0265C33.1488 31.1694 34.0544 31.4074 34.6221 31.5554C35.1898 31.7035 35.9561 31.9127 36.3251 32.0204C36.6941 32.128 37.4604 32.3407 38.0281 32.4932C39.552 32.9022 41.6043 33.5461 42.1412 33.7837C42.992 34.16 43.2084 34.418 43.3304 35.2005C43.4405 35.9071 43.4965 36.9853 43.4644 37.7792C43.4526 38.0688 43.3734 38.2912 43.2311 38.4334C43.0412 38.6233 42.9401 38.6407 42.3796 38.58C42.0299 38.5422 41.6043 38.4701 41.434 38.4199C41.2637 38.3697 40.3581 38.1111 39.4214 37.8451C37.1593 37.2027 37.0792 37.179 34.9317 36.5151C32.9974 35.9171 31.7833 35.548 29.7196 34.9303C29.3506 34.8198 28.6307 34.6039 28.1198 34.4505C27.6089 34.297 26.889 34.0873 26.52 33.9843C25.3805 33.6663 22.9836 32.9688 22.4948 32.8129C22.2394 32.7315 21.682 32.5649 21.2563 32.4428C18.5772 31.6742 16.5534 31.0523 14.937 30.5013C13.9427 30.1623 13.4877 30.0507 13.4112 30.1272C13.2823 30.2561 13.383 30.58 13.5523 30.5809C13.6172 30.5813 13.7981 30.6482 13.9544 30.7297C14.3244 30.9227 17.5686 31.9576 20.121 32.6967C26.207 34.4591 27.1625 34.7373 27.965 34.98C28.4475 35.126 29.1442 35.3352 29.5132 35.4451C29.8821 35.5549 30.4627 35.7319 30.8033 35.8385C31.1439 35.945 31.8173 36.1496 32.2999 36.2933C33.3625 36.6098 35.319 37.2073 36.5862 37.6024C38.0121 38.0469 41.0582 38.9032 41.6713 39.0319C41.9722 39.0951 42.4487 39.1468 42.7303 39.1468C43.1149 39.1468 43.2869 39.1984 43.4219 39.3544C43.779 39.7673 44.3816 40.851 44.4807 41.2587C44.5365 41.4879 44.6285 41.8181 44.6853 41.9924C44.8252 42.4227 44.8159 42.6334 44.6232 43.3959C43.5609 47.5983 34.4591 49.0375 24.517 46.575C22.2858 46.0224 19.4814 45.1301 18.2115 44.5689C18.0413 44.4936 17.6465 44.3248 17.3343 44.1938C16.2455 43.7368 13.9724 42.5264 12.9478 41.858C9.8623 39.8453 7.86537 37.646 7.4324 35.7835C7.12658 34.4683 7.45418 33.2404 8.33405 32.4041L8.64131 32.112L8.71263 33.075C8.81109 34.4033 8.92989 34.7923 9.37111 35.2309C9.73359 35.5914 10.7239 36.0504 11.1387 36.0504C11.2465 36.0504 11.4654 36.1003 11.6251 36.1613C11.7849 36.2223 14.6792 36.8242 18.0567 37.499C26.969 39.2794 32.4495 40.4433 33.848 40.8525C33.9332 40.8774 34.2815 40.9641 34.6221 41.0452C34.9627 41.1263 35.7058 41.3167 36.2735 41.4682C36.8411 41.6198 37.6307 41.8301 38.0281 41.9354C38.4254 42.0408 39.0524 42.219 39.4214 42.3312C39.7904 42.4434 40.5567 42.6763 41.1244 42.8486C41.6921 43.0209 42.4308 43.257 42.7662 43.3734C43.1014 43.4897 43.4846 43.5849 43.6177 43.5849C43.9907 43.5849 43.9094 43.3046 43.4724 43.0842C42.4006 42.5434 35.6673 40.6632 31.4226 39.7192C31.0252 39.6308 30.2821 39.4623 29.7712 39.3446C29.2603 39.227 28.6101 39.0865 28.3262 39.0325C28.0424 38.9785 27.4154 38.847 26.9329 38.7399C25.6584 38.4573 24.6137 38.2351 23.7333 38.0596C14.2511 36.1679 11.4865 35.599 10.8998 35.4187C10.0464 35.1564 9.53388 34.738 9.38402 34.1814C9.31125 33.9114 9.28493 31.6832 9.30516 27.5079C9.33386 21.5527 9.34531 21.2204 9.53439 20.8542C9.80904 20.3221 10.4388 19.9261 11.606 19.5514C13.0588 19.0851 17.3107 18.1602 19.0556 17.9309L19.5901 17.8606L20.3234 18.5895C21.4743 19.7336 22.7683 20.2316 24.3103 20.1236C25.77 20.0214 26.9944 19.3724 27.9485 18.1949C28.2015 17.8827 28.4417 17.614 28.4823 17.5976C28.5228 17.5812 28.5811 17.7541 28.6115 17.9818C28.6421 18.2095 28.861 18.7962 29.0978 19.2858C29.6927 20.5149 30.7006 21.543 31.8418 22.085C32.5451 22.419 32.7583 22.4724 33.3847 22.4724C34.2265 22.4724 34.6874 22.2625 35.0604 21.7091C35.3338 21.3033 35.3682 20.6391 35.1436 20.1017C34.6276 18.8664 32.1551 17.48 29.8415 17.1285L29.0487 17.008L29.0163 16.4936C28.9636 15.6587 29.3943 14.4617 30.0735 13.5549C30.6546 12.7792 31.7996 11.9995 32.9707 11.582C33.6999 11.3221 34.8752 11.3236 35.3877 11.5851ZM4.89599 13.6655C4.69256 13.7645 4.29396 14.2755 4.18063 14.5826C4.14017 14.6922 4.38045 14.8957 5.00302 15.2792C5.48677 15.5772 5.92521 15.8211 5.97733 15.8211C6.16775 15.8211 6.20336 15.5969 6.04153 15.4179C5.88589 15.2461 5.90178 15.2224 6.28944 15.0476C6.71322 14.8565 6.84905 14.5826 6.52012 14.5826C6.41918 14.5826 6.23949 14.6506 6.12079 14.7338C5.84357 14.9279 5.7771 14.8534 5.84646 14.4261C5.89136 14.1496 5.85007 14.0293 5.63673 13.816C5.3528 13.5321 5.2241 13.5059 4.89599 13.6655ZM48.375 14.0304C47.9918 14.2878 47.6783 14.5443 47.6783 14.6004C47.6783 14.7504 48.4059 15.8211 48.5079 15.8211C48.7228 15.8211 48.6995 15.5812 48.4418 15.1417C48.2126 14.7505 48.1888 14.6494 48.3077 14.5741C48.5305 14.433 48.5607 14.4507 48.8529 14.8922C49.0032 15.1193 49.1692 15.305 49.2218 15.305C49.4494 15.305 49.4332 15.0576 49.1807 14.6762C49.0314 14.4504 48.9368 14.2209 48.9707 14.1661C49.0857 13.98 49.3229 14.0656 49.5524 14.3761C49.7801 14.684 49.989 14.7682 50.0959 14.5951C50.1832 14.454 49.4447 13.5497 49.2475 13.5563C49.1508 13.5596 48.7581 13.7729 48.375 14.0304ZM5.44507 14.4535C5.4718 14.8218 5.44641 14.8922 5.28747 14.8922C5.05473 14.8922 4.6393 14.6125 4.6393 14.4558C4.6393 14.2448 4.9864 13.9538 5.20129 13.9846C5.37107 14.0088 5.41968 14.1023 5.44507 14.4535ZM2.89266 17.43C2.63526 17.6466 2.57508 17.7757 2.57508 18.1112C2.57508 19.1901 4.14317 19.6595 4.54084 18.6996C4.70639 18.2999 4.5909 17.9195 4.17909 17.5077C3.74931 17.0779 3.3405 17.0532 2.89266 17.43ZM50.3308 17.547C49.6526 17.8182 49.431 17.9528 49.4561 18.0783C49.4781 18.1887 49.5718 18.2349 49.7286 18.2127C49.954 18.1807 49.9656 18.207 49.9324 18.6771C49.905 19.0669 49.9311 19.1754 50.0521 19.1754C50.1403 19.1754 50.2203 19.0643 50.2378 18.9174C50.3003 18.3954 50.3446 18.3685 50.6796 18.6504C50.8541 18.7973 51.0811 18.9174 51.184 18.9174C51.5016 18.9174 51.8413 18.5643 51.8388 18.2368C51.8357 17.8345 51.5406 17.1603 51.3734 17.1734C51.2995 17.179 50.8304 17.3473 50.3308 17.547ZM27.965 17.5443C27.965 17.7409 27.3663 18.4385 26.8956 18.7902C26.1712 19.3315 25.5682 19.5925 24.7138 19.7346C23.085 20.0056 21.6127 19.5736 20.5529 18.5138C20.2585 18.2195 20.0177 17.9344 20.0177 17.8804C20.0177 17.7776 20.0412 17.7744 21.2047 17.7177C21.602 17.6984 22.3684 17.6419 22.9077 17.5922C24.1084 17.4815 27.965 17.445 27.965 17.5443ZM4.0125 17.8476C4.3016 18.2151 4.2856 18.5642 3.97039 18.7709C3.73136 18.9274 3.69162 18.9255 3.37693 18.7424C2.7845 18.3978 2.8777 17.5757 3.50914 17.5757C3.69895 17.5757 3.87224 17.6693 4.0125 17.8476ZM30.5413 17.8473C32.5577 18.3509 34.0574 19.2536 34.5803 20.2784C34.8533 20.8135 34.8266 21.1293 34.4752 21.5218C34.1818 21.8496 34.1515 21.8587 33.3657 21.8516C32.693 21.8455 32.4639 21.796 31.9958 21.5558C31.3195 21.2087 30.3605 20.317 29.9123 19.6185C29.5437 19.0443 29.0673 17.8158 29.1569 17.6709C29.2414 17.5341 29.3344 17.5459 30.5413 17.8473ZM51.4756 18.1948C51.434 18.5513 51.0409 18.5991 50.7749 18.28C50.5106 17.9628 50.5139 17.9493 50.9036 17.759C51.2121 17.6083 51.2498 17.6088 51.3724 17.7659C51.4458 17.8599 51.4922 18.0529 51.4756 18.1948ZM51.9219 21.2486C51.6002 21.5159 51.1809 21.7548 50.9173 21.8212C50.5116 21.9233 50.362 22.0828 50.5218 22.2426C50.553 22.2737 50.7492 22.2608 50.9579 22.2138C51.2911 22.1386 51.4269 22.1778 52.075 22.5354C52.9174 23.0004 52.9426 23.0071 52.9406 22.762C52.9397 22.6529 52.7354 22.4691 52.4246 22.2976C52.1416 22.1415 51.9099 21.962 51.9099 21.8988C51.9099 21.8355 52.1015 21.6138 52.3356 21.406C52.6858 21.0953 52.7358 21.0071 52.6178 20.9091C52.504 20.8147 52.3594 20.8853 51.9219 21.2486ZM1.55319 21.2009C1.08482 21.7036 1.18927 22.4834 1.77262 22.839C2.2382 23.1229 2.80153 23.1075 3.15771 22.8011C3.40087 22.592 3.44288 22.4759 3.44722 22.0013C3.45124 21.5743 3.41667 21.4461 3.29756 21.4461C3.18929 21.4461 3.12561 21.5955 3.08556 21.9436C3.02219 22.4953 2.88864 22.6291 2.39849 22.6315C1.75177 22.6346 1.41984 21.9068 1.85601 21.4425C2.03663 21.2502 2.04509 21.2018 1.9166 21.0951C1.79667 20.9956 1.72493 21.0165 1.55319 21.2009ZM0.944349 25.0275C0.87623 25.0956 0.820496 25.2721 0.820496 25.4197C0.820496 25.5673 0.87623 25.7438 0.944349 25.8119C1.23623 26.1038 1.85261 25.8376 1.85261 25.4197C1.85261 25.0018 1.23623 24.7356 0.944349 25.0275ZM52.5826 25.0715C52.3248 25.3293 52.4226 25.7579 52.7669 25.8783C53.1421 26.0095 53.3954 25.8545 53.4412 25.466C53.4989 24.9766 52.9361 24.718 52.5826 25.0715ZM0.923087 29.4707C0.922365 30.4464 1.18452 32.4819 1.51129 34.0378C2.56745 39.0657 4.922 43.4425 8.50972 47.0471C12.5651 51.1215 17.3133 53.5761 23.0109 54.5433C24.5777 54.8093 27.8587 54.907 29.5479 54.7379C32.7751 54.415 36.0193 53.4865 38.8769 52.0678C42.5882 50.2252 45.6445 47.6439 48.248 44.1529C49.4346 42.5617 50.4285 40.7849 51.3367 38.6307C51.4922 38.2617 51.6844 37.8083 51.7637 37.6231C52.3878 36.1652 53.1711 32.2589 53.2953 29.9843C53.3508 28.9694 53.3375 28.8125 53.1916 28.7565C52.9244 28.654 52.8421 28.9183 52.8404 29.8844C52.8385 30.9422 52.5087 33.4193 52.2096 34.6209C51.2468 38.4893 49.651 41.7224 47.1226 44.9266C46.2238 46.0656 43.972 48.23 42.6726 49.2039C39.0864 51.8915 35.5462 53.3934 30.9581 54.1738C29.4421 54.4316 25.8654 54.4851 24.1462 54.2757C19.5308 53.7134 15.1207 51.9384 11.5593 49.2099C5.46241 44.5386 1.77933 37.593 1.3735 30.0014C1.31199 28.8511 1.28587 28.7225 1.11444 28.7225C0.946516 28.7225 0.923603 28.8121 0.923087 29.4707Z" fill="#634036"/>
<path d="M80.76 20.06C80.928 19.82 81.168 19.4 81.48 18.8C82.248 17.432 82.704 16.748 82.848 16.748C83.016 16.748 83.1 16.844 83.1 17.036C83.1 18.212 82.488 19.7 81.264 21.5C79.056 24.74 76.116 26.36 72.444 26.36C71.412 26.36 70.464 26.12 69.6 25.64C68.736 25.16 68.052 24.548 67.548 23.804C66.516 22.292 66 20.708 66 19.052C66 14.876 67.08 11.516 69.24 8.972C71.424 6.404 74.004 5.12 76.98 5.12C78.108 5.12 79.032 5.456 79.752 6.128C80.472 6.776 80.832 7.604 80.832 8.612C80.832 9.62 80.58 10.556 80.076 11.42C79.572 12.284 78.96 12.716 78.24 12.716C77.544 12.716 77.196 12.524 77.196 12.14C77.196 11.708 77.424 11.216 77.88 10.664C78.36 10.112 78.6 9.56 78.6 9.008C78.6 7.304 77.688 6.452 75.864 6.452C74.064 6.452 72.432 7.664 70.968 10.088C69.504 12.512 68.772 15.008 68.772 17.576C68.772 19.352 69.276 20.936 70.284 22.328C71.292 23.696 72.708 24.38 74.532 24.38C76.692 24.38 78.768 22.94 80.76 20.06ZM92.1039 18.188C93.0639 17.876 93.7239 17.612 94.0839 17.396C94.4679 17.156 94.7559 16.976 94.9479 16.856L95.3799 16.604C95.4999 16.532 95.5959 16.496 95.6679 16.496C95.8599 16.496 95.9559 16.604 95.9559 16.82C95.9559 17.036 95.5839 17.42 94.8399 17.972C94.0959 18.5 93.1719 18.98 92.0679 19.412C91.8999 21.428 91.2639 23.06 90.1599 24.308C89.0559 25.556 87.4839 26.18 85.4439 26.18C83.9559 26.18 82.8159 25.592 82.0239 24.416C81.2319 23.216 80.8359 21.824 80.8359 20.24C80.8359 18.632 81.3039 17.12 82.2399 15.704C83.1999 14.288 84.4239 13.58 85.9119 13.58C86.5839 13.1 87.3759 12.86 88.2879 12.86C89.2239 12.86 90.0879 13.352 90.8799 14.336C91.6719 15.32 92.0799 16.604 92.1039 18.188ZM89.7639 20.024L88.4679 20.096C87.3639 20.096 86.4279 19.772 85.6599 19.124C84.8919 18.452 84.5079 17.72 84.5079 16.928C84.5079 16.136 84.6399 15.452 84.9039 14.876C83.8719 15.692 83.3559 17.3 83.3559 19.7C83.3559 20.852 83.5959 21.956 84.0759 23.012C84.5559 24.044 85.3119 24.56 86.3439 24.56C87.3759 24.56 88.1799 24.128 88.7559 23.264C89.3319 22.376 89.6679 21.296 89.7639 20.024ZM87.5319 14.048C87.1479 14.048 86.8479 14.228 86.6319 14.588C86.4159 14.924 86.3079 15.296 86.3079 15.704C86.3079 16.592 86.6079 17.312 87.2079 17.864C87.8319 18.416 88.5519 18.692 89.3679 18.692H89.7999C89.7519 17.516 89.5479 16.448 89.1879 15.488C88.8519 14.528 88.2999 14.048 87.5319 14.048ZM97.0812 16.604L99.0612 16.388C99.2532 16.388 99.4212 16.496 99.5652 16.712C99.7092 16.928 99.7812 17.156 99.7812 17.396C99.7812 17.636 99.6972 18.452 99.5292 19.844C99.3852 21.236 99.3132 22.34 99.3132 23.156C99.3132 23.948 99.3852 24.344 99.5292 24.344C99.9372 24.32 100.501 23.816 101.221 22.832C101.941 21.824 102.649 20.54 103.345 18.98C104.065 17.42 104.497 16.64 104.641 16.64C104.809 16.64 104.893 16.736 104.893 16.928C104.893 17.6 104.545 18.668 103.849 20.132C101.953 24.164 100.357 26.18 99.0612 26.18C98.1252 26.18 97.4172 25.988 96.9372 25.604C96.7692 25.436 96.6852 24.392 96.6852 22.472C96.6852 20.552 96.8892 18.908 97.2972 17.54C95.9052 17.54 94.9332 17.096 94.3812 16.208C94.0932 15.752 93.9492 15.236 93.9492 14.66C93.9492 14.084 94.0692 13.58 94.3092 13.148C94.5492 12.716 94.8852 12.5 95.3172 12.5C95.7732 12.5 96.1812 12.74 96.5412 13.22C96.9252 13.676 97.1172 14.192 97.1172 14.768C97.1172 15.344 96.9492 15.92 96.6132 16.496C96.7092 16.568 96.8652 16.604 97.0812 16.604ZM105.933 24.056L105.969 25.172C105.969 25.844 105.777 26.18 105.393 26.18C104.817 26.18 104.265 26.108 103.737 25.964C103.209 25.796 102.945 25.58 102.945 25.316C102.945 25.028 103.005 24.08 103.125 22.472C103.269 20.84 103.341 19.616 103.341 18.8V16.676C103.341 15.524 103.461 14.828 103.701 14.588C103.941 14.348 104.361 14 104.961 13.544C105.585 13.088 106.029 12.86 106.293 12.86C106.581 12.86 106.761 12.908 106.833 13.004C106.905 13.1 106.941 13.28 106.941 13.544C106.941 14.816 106.701 16.016 106.221 17.144C106.101 18.512 106.041 19.46 106.041 19.988C106.137 19.844 106.641 19.028 107.553 17.54C108.465 16.052 109.233 14.96 109.857 14.264C110.505 13.568 111.081 13.22 111.585 13.22C112.089 13.22 112.533 13.388 112.917 13.724C113.325 14.06 113.529 14.48 113.529 14.984C113.529 16.04 113.409 17.6 113.169 19.664C112.953 21.704 112.845 23 112.845 23.552C112.845 24.08 112.917 24.344 113.061 24.344C113.469 24.32 114.033 23.816 114.753 22.832C115.473 21.824 116.181 20.54 116.877 18.98C117.597 17.42 118.029 16.64 118.173 16.64C118.341 16.64 118.425 16.736 118.425 16.928C118.425 17.6 118.077 18.668 117.381 20.132C115.485 24.164 113.889 26.18 112.593 26.18C111.657 26.18 110.949 25.988 110.469 25.604C110.301 25.436 110.217 25.004 110.217 24.308C110.217 23.588 110.277 22.436 110.397 20.852C110.541 19.244 110.613 18.044 110.613 17.252C110.613 16.46 110.469 16.064 110.181 16.064C109.917 16.064 109.197 16.892 108.021 18.548C106.845 20.18 106.221 21.224 106.149 21.68C106.005 22.52 105.933 23.312 105.933 24.056ZM120.876 26.18C119.532 26.18 118.464 25.676 117.672 24.668C116.88 23.636 116.484 22.472 116.484 21.176C116.484 18.56 117.036 16.58 118.14 15.236C119.244 13.892 120.672 13.22 122.424 13.22C123.24 13.22 123.912 13.448 124.44 13.904C124.968 14.336 125.232 14.936 125.232 15.704C125.232 17.144 124.62 18.356 123.396 19.34C122.196 20.3 120.72 20.804 118.968 20.852C119.064 21.788 119.376 22.604 119.904 23.3C120.456 23.972 121.092 24.308 121.812 24.308C122.532 24.308 123.18 24.14 123.756 23.804C124.332 23.468 124.86 22.988 125.34 22.364C126.348 21.044 127.212 19.544 127.932 17.864C128.124 17.432 128.268 17.12 128.364 16.928C128.484 16.736 128.604 16.64 128.724 16.64C128.868 16.64 128.94 16.736 128.94 16.928C128.94 18.128 128.208 19.928 126.744 22.328C125.16 24.896 123.204 26.18 120.876 26.18ZM118.968 19.988C120.384 19.748 121.416 19.292 122.064 18.62C122.736 17.948 123.072 17.072 123.072 15.992C123.072 14.912 122.724 14.372 122.028 14.372C121.188 14.372 120.48 14.96 119.904 16.136C119.328 17.288 119.016 18.572 118.968 19.988ZM130.163 16.604L132.143 16.388C132.335 16.388 132.503 16.496 132.647 16.712C132.791 16.928 132.863 17.156 132.863 17.396C132.863 17.636 132.779 18.452 132.611 19.844C132.467 21.236 132.395 22.34 132.395 23.156C132.395 23.948 132.467 24.344 132.611 24.344C133.019 24.32 133.583 23.816 134.303 22.832C135.023 21.824 135.731 20.54 136.427 18.98C137.147 17.42 137.579 16.64 137.723 16.64C137.891 16.64 137.975 16.736 137.975 16.928C137.975 17.6 137.627 18.668 136.931 20.132C135.035 24.164 133.439 26.18 132.143 26.18C131.207 26.18 130.499 25.988 130.019 25.604C129.851 25.436 129.767 24.392 129.767 22.472C129.767 20.552 129.971 18.908 130.379 17.54C128.987 17.54 128.015 17.096 127.463 16.208C127.175 15.752 127.031 15.236 127.031 14.66C127.031 14.084 127.151 13.58 127.391 13.148C127.631 12.716 127.967 12.5 128.399 12.5C128.855 12.5 129.263 12.74 129.623 13.22C130.007 13.676 130.199 14.192 130.199 14.768C130.199 15.344 130.031 15.92 129.695 16.496C129.791 16.568 129.947 16.604 130.163 16.604ZM148.195 9.476L148.375 8.54C148.279 7.244 147.403 6.596 145.747 6.596C144.787 6.596 143.947 6.944 143.227 7.64C142.531 8.312 142.183 9.032 142.183 9.8C142.183 10.544 142.495 11.204 143.119 11.78C143.767 12.332 144.535 12.836 145.423 13.292C146.335 13.724 147.235 14.204 148.123 14.732C149.035 15.236 149.803 15.896 150.427 16.712C151.075 17.528 151.399 18.452 151.399 19.484C151.399 21.62 150.559 23.3 148.879 24.524C147.199 25.748 145.387 26.36 143.443 26.36C141.499 26.36 139.879 26.012 138.583 25.316C137.287 24.596 136.639 23.516 136.639 22.076C136.639 21.308 136.903 20.612 137.431 19.988C137.959 19.364 138.715 19.052 139.699 19.052C140.083 19.052 140.431 19.16 140.743 19.376C141.055 19.592 141.247 19.88 141.319 20.24C141.319 20.6 141.103 20.78 140.671 20.78C139.855 20.78 139.447 21.128 139.447 21.824C139.471 22.616 139.843 23.336 140.563 23.984C141.307 24.632 142.339 24.956 143.659 24.956C145.003 24.956 146.143 24.5 147.079 23.588C148.039 22.676 148.519 21.572 148.519 20.276C148.519 19.412 148.195 18.632 147.547 17.936C146.899 17.24 146.119 16.652 145.207 16.172C144.295 15.668 143.371 15.164 142.435 14.66C141.523 14.156 140.743 13.544 140.095 12.824C139.447 12.104 139.123 11.288 139.123 10.376C139.123 8.768 139.807 7.484 141.175 6.524C142.567 5.564 144.139 5.084 145.891 5.084C147.067 5.084 148.135 5.324 149.095 5.804C150.055 6.284 150.547 7.016 150.571 8C150.571 8.576 150.427 9.056 150.139 9.44C149.851 9.824 149.455 10.016 148.951 10.016C148.471 10.016 148.219 9.836 148.195 9.476ZM161.498 20.132C159.602 24.164 157.994 26.18 156.674 26.18C155.378 26.18 154.61 26.024 154.37 25.712C154.154 25.4 154.046 24.368 154.046 22.616C154.046 20.864 154.214 18.332 154.55 15.02C153.35 14.78 152.714 14.288 152.642 13.544C152.642 13.16 152.894 12.968 153.398 12.968C153.902 12.968 154.346 13.064 154.73 13.256C154.946 11.528 155.198 9.776 155.486 8C155.558 7.544 155.786 7.112 156.17 6.704C156.554 6.296 156.926 6.092 157.286 6.092C157.598 6.092 157.754 6.584 157.754 7.568C157.754 8.024 157.586 10.124 157.25 13.868C157.898 13.748 158.606 13.508 159.374 13.148C160.166 12.788 160.634 12.608 160.778 12.608C161.21 12.608 161.426 12.74 161.426 13.004C161.45 13.244 161.006 13.58 160.094 14.012C159.182 14.42 158.198 14.732 157.142 14.948C156.854 18.452 156.71 21.104 156.71 22.904C156.71 23.864 156.854 24.344 157.142 24.344C157.574 24.32 158.15 23.816 158.87 22.832C159.59 21.848 160.298 20.576 160.994 19.016C161.714 17.432 162.146 16.64 162.29 16.64C162.458 16.64 162.542 16.736 162.542 16.928C162.542 17.6 162.194 18.668 161.498 20.132ZM171.944 18.188C172.904 17.876 173.564 17.612 173.924 17.396C174.308 17.156 174.596 16.976 174.788 16.856L175.22 16.604C175.34 16.532 175.436 16.496 175.508 16.496C175.7 16.496 175.796 16.604 175.796 16.82C175.796 17.036 175.424 17.42 174.68 17.972C173.936 18.5 173.012 18.98 171.908 19.412C171.74 21.428 171.104 23.06 170 24.308C168.896 25.556 167.324 26.18 165.284 26.18C163.796 26.18 162.656 25.592 161.864 24.416C161.072 23.216 160.676 21.824 160.676 20.24C160.676 18.632 161.144 17.12 162.08 15.704C163.04 14.288 164.264 13.58 165.752 13.58C166.424 13.1 167.216 12.86 168.128 12.86C169.064 12.86 169.928 13.352 170.72 14.336C171.512 15.32 171.92 16.604 171.944 18.188ZM169.604 20.024L168.308 20.096C167.204 20.096 166.268 19.772 165.5 19.124C164.732 18.452 164.348 17.72 164.348 16.928C164.348 16.136 164.48 15.452 164.744 14.876C163.712 15.692 163.196 17.3 163.196 19.7C163.196 20.852 163.436 21.956 163.916 23.012C164.396 24.044 165.152 24.56 166.184 24.56C167.216 24.56 168.02 24.128 168.596 23.264C169.172 22.376 169.508 21.296 169.604 20.024ZM167.372 14.048C166.988 14.048 166.688 14.228 166.472 14.588C166.256 14.924 166.148 15.296 166.148 15.704C166.148 16.592 166.448 17.312 167.048 17.864C167.672 18.416 168.392 18.692 169.208 18.692H169.64C169.592 17.516 169.388 16.448 169.028 15.488C168.692 14.528 168.14 14.048 167.372 14.048ZM176.597 24.056L176.633 25.172C176.633 25.844 176.441 26.18 176.057 26.18C175.481 26.18 174.929 26.108 174.401 25.964C173.873 25.796 173.609 25.58 173.609 25.316C173.609 25.028 173.669 24.08 173.789 22.472C173.933 20.84 174.005 19.616 174.005 18.8V16.676C174.005 15.524 174.125 14.828 174.365 14.588C174.605 14.348 175.025 14 175.625 13.544C176.249 13.088 176.693 12.86 176.957 12.86C177.245 12.86 177.425 12.908 177.497 13.004C177.569 13.1 177.605 13.28 177.605 13.544C177.605 14.816 177.365 16.016 176.885 17.144C176.765 18.512 176.705 19.46 176.705 19.988C176.801 19.844 177.305 19.028 178.217 17.54C179.129 16.052 179.897 14.96 180.521 14.264C181.169 13.568 181.745 13.22 182.249 13.22C182.753 13.22 183.197 13.388 183.581 13.724C183.989 14.06 184.193 14.48 184.193 14.984C184.193 16.04 184.073 17.6 183.833 19.664C183.617 21.704 183.509 23 183.509 23.552C183.509 24.08 183.581 24.344 183.725 24.344C184.133 24.32 184.697 23.816 185.417 22.832C186.137 21.824 186.845 20.54 187.541 18.98C188.261 17.42 188.693 16.64 188.837 16.64C189.005 16.64 189.089 16.736 189.089 16.928C189.089 17.6 188.741 18.668 188.045 20.132C186.149 24.164 184.553 26.18 183.257 26.18C182.321 26.18 181.613 25.988 181.133 25.604C180.965 25.436 180.881 25.004 180.881 24.308C180.881 23.588 180.941 22.436 181.061 20.852C181.205 19.244 181.277 18.044 181.277 17.252C181.277 16.46 181.133 16.064 180.845 16.064C180.581 16.064 179.861 16.892 178.685 18.548C177.509 20.18 176.885 21.224 176.813 21.68C176.669 22.52 176.597 23.312 176.597 24.056ZM191.54 26.18C190.196 26.18 189.128 25.676 188.336 24.668C187.544 23.636 187.148 22.472 187.148 21.176C187.148 18.56 187.7 16.58 188.804 15.236C189.908 13.892 191.336 13.22 193.088 13.22C193.904 13.22 194.576 13.448 195.104 13.904C195.632 14.336 195.896 14.936 195.896 15.704C195.896 17.144 195.284 18.356 194.06 19.34C192.86 20.3 191.384 20.804 189.632 20.852C189.728 21.788 190.04 22.604 190.568 23.3C191.12 23.972 191.756 24.308 192.476 24.308C193.196 24.308 193.844 24.14 194.42 23.804C194.996 23.468 195.524 22.988 196.004 22.364C197.012 21.044 197.876 19.544 198.596 17.864C198.788 17.432 198.932 17.12 199.028 16.928C199.148 16.736 199.268 16.64 199.388 16.64C199.532 16.64 199.604 16.736 199.604 16.928C199.604 18.128 198.872 19.928 197.408 22.328C195.824 24.896 193.868 26.18 191.54 26.18ZM189.632 19.988C191.048 19.748 192.08 19.292 192.728 18.62C193.4 17.948 193.736 17.072 193.736 15.992C193.736 14.912 193.388 14.372 192.692 14.372C191.852 14.372 191.144 14.96 190.568 16.136C189.992 17.288 189.68 18.572 189.632 19.988Z" fill="#634036"/>
<path d="M78.746 49H75.106V39.088H79.026C80.314 39.088 82.008 39.676 82.008 41.58C82.008 42.602 81.406 43.4 80.286 43.75V43.778C81.56 43.932 82.428 44.94 82.428 46.172C82.428 48.076 80.902 49 78.746 49ZM76.87 47.488H78.55C79.95 47.488 80.664 47.012 80.664 46.032C80.664 45.024 79.992 44.632 78.648 44.632H76.87V47.488ZM76.87 43.12H78.536C79.6 43.12 80.244 42.63 80.244 41.874C80.244 41.006 79.6 40.6 78.396 40.6H76.87V43.12Z" fill="#634036"/>
<path d="M97.574 49H95.6L99.912 39.088H101.438L105.708 49H103.692L102.768 46.732H98.47L97.574 49ZM100.626 41.188L99.072 45.22H102.152L100.626 41.188Z" fill="#634036"/>
<path d="M119.306 49V39.088H121.07V43.288H121.154L125.256 39.088H127.636L123.002 43.666L127.944 49H125.466L121.168 44.128H121.07V49H119.306Z" fill="#634036"/>
<path d="M140.906 49V39.088H147.472V40.684H142.67V43.12H147.22V44.716H142.67V47.404H147.724V49H140.906Z" fill="#634036"/>
<path d="M163.27 49H161.506V39.088H165.006C166.91 39.088 168.646 39.76 168.646 41.93C168.646 43.414 167.75 44.422 166.35 44.618L168.982 49H166.854L164.558 44.8H163.27V49ZM163.27 40.6V43.288H164.726C165.734 43.288 166.798 43.148 166.798 41.916C166.798 40.782 165.776 40.6 164.852 40.6H163.27Z" fill="#634036"/>
<path d="M183.016 39.088L185.452 43.036L187.916 39.088H190.016L186.292 44.758V49H184.528V44.758L180.804 39.088H183.016Z" fill="#634036"/>
</svg>
