<svg width="69" height="68" viewBox="0 0 69 68" fill="none" xmlns="http://www.w3.org/2000/svg">
<path d="M25.2604 30C25.2604 32.2091 23.4695 34 21.2604 34C19.0513 34 17.2604 32.2091 17.2604 30C17.2604 27.7909 19.0513 26 21.2604 26C23.4695 26 25.2604 27.7909 25.2604 30Z" fill="white"/>
<path d="M49.2604 30C49.2604 32.2091 47.4695 34 45.2604 34C43.0513 34 41.2604 32.2091 41.2604 30C41.2604 27.7909 43.0513 26 45.2604 26C47.4695 26 49.2604 27.7909 49.2604 30Z" fill="white"/>
<path d="M55.927 25.5L55.2499 24.7641C55.2397 24.7735 55.2297 24.7831 55.2199 24.7929L55.927 25.5ZM51.3109 25.5L52.054 24.8308C52.0416 24.8171 52.0288 24.8036 52.0157 24.7906L51.3109 25.5ZM42.3587 16.6066L41.6184 17.2789C41.6299 17.2915 41.6418 17.3039 41.6539 17.316L42.3587 16.6066ZM40.5489 6.64261L39.6283 6.25231C39.6224 6.26614 39.6168 6.2801 39.6116 6.29418L40.5489 6.64261ZM42.3332 3.67283L43.0764 4.34189L43.0764 4.34188L42.3332 3.67283ZM53.9766 3.70115L53.2304 4.36696C53.4182 4.57738 53.6861 4.69873 53.9681 4.70111C54.2501 4.70349 54.52 4.58669 54.7113 4.37948L53.9766 3.70115ZM65.5205 3.78149L66.2636 3.11238L65.5205 3.78149ZM65.5944 16.6047L66.2715 17.3406C66.2977 17.3165 66.3226 17.2911 66.346 17.2643L65.5944 16.6047ZM47.7189 60.4642L48.2488 61.3123L48.2488 61.3123L47.7189 60.4642ZM50.0833 52.9857L51.0522 52.7383L50.0833 52.9857ZM55.2199 24.7929C54.7304 25.2824 54.4873 25.5 53.927 25.5V27.5C55.3667 27.5 56.1236 26.7176 56.6341 26.2071L55.2199 24.7929ZM53.927 25.5C53.021 25.5 52.4248 25.2426 52.054 24.8308L50.5678 26.1692C51.4294 27.126 52.6456 27.5 53.927 27.5V25.5ZM52.0157 24.7906L43.0635 15.8971L41.6539 17.316L50.6061 26.2094L52.0157 24.7906ZM43.099 15.9343C42.4186 15.185 41.8732 14.2883 41.4987 13.2932L39.6268 13.9977C40.0869 15.2201 40.7622 16.336 41.6184 17.2789L43.099 15.9343ZM41.4987 13.2932C41.1241 12.2981 40.9292 11.2275 40.927 10.1436L38.9271 10.1475C38.9297 11.4672 39.1668 12.7753 39.6268 13.9977L41.4987 13.2932ZM40.927 10.1436C40.9249 9.05975 41.1156 7.98811 41.4863 6.99105L39.6116 6.29418C39.1564 7.51867 38.9245 8.82791 38.9271 10.1475L40.927 10.1436ZM43.0764 4.34188C43.7538 3.58942 44.5525 2.99933 45.4236 2.59977L44.5898 0.781886C43.4609 1.29967 42.4426 2.05669 41.59 3.00377L43.0764 4.34188ZM45.4236 2.59977C46.2943 2.20038 47.2231 1.99775 48.1577 2.00002L48.1626 2.48551e-05C46.9335 -0.00296509 45.719 0.263921 44.5898 0.781886L45.4236 2.59977ZM48.1577 2.00002C49.0924 2.00229 50.0204 2.20945 50.8897 2.61313L51.7321 0.799191C50.6051 0.275803 49.3917 0.00301474 48.1626 2.48551e-05L48.1577 2.00002ZM50.8897 2.61313C51.7594 3.01699 52.5559 3.61107 53.2304 4.36696L54.7227 3.03533C53.874 2.08426 52.8587 1.3224 51.7321 0.799191L50.8897 2.61313ZM54.7113 4.37948C56.0793 2.89767 57.8943 2.09632 59.7564 2.10928L59.7703 0.109329C57.311 0.0922111 54.9678 1.15323 53.2418 3.02281L54.7113 4.37948ZM59.7564 2.10928C61.6186 2.12224 63.4253 2.94895 64.7773 4.45061L66.2636 3.11238C64.5597 1.21985 62.2295 0.126445 59.7703 0.109329L59.7564 2.10928ZM64.7773 4.45061C66.1323 5.95562 66.9144 8.01328 66.9269 10.182L68.9268 10.1705C68.9117 7.53887 67.9646 5.00156 66.2636 3.11238L64.7773 4.45061ZM66.9269 10.182C66.9394 12.3508 66.1811 14.4201 64.8428 15.9451L66.346 17.2643C68.0243 15.352 68.942 12.8021 68.9268 10.1705L66.9269 10.182ZM64.9173 15.8689L55.2499 24.7641L56.6041 26.2359L66.2715 17.3406L64.9173 15.8689ZM64.4062 35C64.4062 52.1208 50.527 66 33.4062 66V68C51.6316 68 66.4062 53.2254 66.4062 35H64.4062ZM33.4062 66C16.2854 66 2.40619 52.1208 2.40619 35H0.406189C0.406189 53.2254 15.1808 68 33.4062 68V66ZM2.40619 35C2.40619 17.8792 16.2854 4 33.4062 4V2C15.1808 2 0.406189 16.7746 0.406189 35H2.40619ZM12.9777 41.8714C16.1003 49.6779 22.9827 56 33.4062 56V54C23.9474 54 17.712 48.3221 14.8347 41.1286L12.9777 41.8714ZM33.4062 56C39.9209 56 44.8999 53.7206 48.6052 49.9138L47.172 48.5189C43.8561 51.9256 39.3998 54 33.4062 54V56ZM48.6052 49.9138C50.7758 47.6837 52.4872 44.9525 53.8223 41.9008L51.99 41.0992C50.729 43.9815 49.1403 46.4966 47.172 48.5189L48.6052 49.9138ZM38.4062 54.5C37.5271 54.9766 37.5271 54.9767 37.5271 54.9767C37.5272 54.9768 37.5272 54.9768 37.5272 54.9769C37.5273 54.977 37.5274 54.9772 37.5275 54.9774C37.5277 54.9778 37.528 54.9783 37.5284 54.9791C37.5292 54.9805 37.5303 54.9826 37.5318 54.9853C37.5347 54.9907 37.539 54.9985 37.5446 55.0087C37.5557 55.0292 37.572 55.0591 37.5931 55.0975C37.6352 55.1742 37.6963 55.2852 37.773 55.4229C37.9262 55.6982 38.1418 56.0814 38.3918 56.5138C38.8877 57.3711 39.5347 58.4488 40.1031 59.2583L41.7399 58.109C41.2247 57.3753 40.614 56.3612 40.1231 55.5125C39.8798 55.0918 39.6698 54.7185 39.5207 54.4505C39.4461 54.3166 39.387 54.2091 39.3465 54.1355C39.3264 54.0987 39.3109 54.0703 39.3005 54.0513C39.2953 54.0418 39.2914 54.0347 39.2889 54.03C39.2876 54.0276 39.2867 54.0259 39.2861 54.0248C39.2858 54.0242 39.2855 54.0238 39.2854 54.0236C39.2853 54.0235 39.2853 54.0234 39.2853 54.0234C39.2853 54.0233 39.2853 54.0233 39.2853 54.0233C39.2853 54.0233 39.2853 54.0234 38.4062 54.5ZM40.1031 59.2583C40.7991 60.2495 42.1373 61.1532 43.5631 61.6298C44.9938 62.1081 46.7676 62.2378 48.2488 61.3123L47.1891 59.6162C46.4133 60.1008 45.3302 60.1118 44.1973 59.733C43.0596 59.3527 42.1275 58.6609 41.7399 58.109L40.1031 59.2583ZM48.2488 61.3123C50.2425 60.0667 51.0638 58.2998 51.314 56.6567C51.5586 55.0507 51.262 53.5601 51.0522 52.7383L49.1144 53.2331C49.2986 53.9545 49.5219 55.1398 49.3368 56.3556C49.1573 57.5343 48.5995 58.735 47.1891 59.6162L48.2488 61.3123ZM51.0522 52.7383C50.8485 51.9405 50.3452 51.042 49.8914 50.3269C49.4212 49.5858 48.9331 48.9334 48.6805 48.6057L47.0966 49.827C47.3304 50.1301 47.778 50.7291 48.2027 51.3984C48.6438 52.0936 48.9947 52.7644 49.1144 53.2331L51.0522 52.7383ZM48.6805 48.6057C48.6248 48.5335 48.58 48.4763 48.5486 48.4366C48.5329 48.4167 48.5206 48.4012 48.5119 48.3904C48.5076 48.385 48.5042 48.3807 48.5017 48.3777C48.5005 48.3761 48.4995 48.3749 48.4988 48.374C48.4984 48.3735 48.4981 48.3731 48.4978 48.3728C48.4977 48.3727 48.4976 48.3726 48.4975 48.3724C48.4975 48.3724 48.4974 48.3723 48.4974 48.3723C48.4974 48.3723 48.4974 48.3722 48.4973 48.3722C48.4973 48.3722 48.4973 48.3722 48.4973 48.3722C48.4973 48.3722 48.4973 48.3722 47.7189 49C46.9406 49.6278 46.9406 49.6278 46.9406 49.6278C46.9406 49.6278 46.9406 49.6278 46.9406 49.6278C46.9406 49.6278 46.9405 49.6278 46.9405 49.6277C46.9405 49.6277 46.9405 49.6277 46.9405 49.6277C46.9404 49.6276 46.9404 49.6276 46.9404 49.6276C46.9404 49.6276 46.9405 49.6277 46.9406 49.6278C46.9408 49.6281 46.9413 49.6287 46.942 49.6296C46.9435 49.6314 46.9458 49.6344 46.9491 49.6385C46.9557 49.6467 46.9658 49.6594 46.9792 49.6764C47.0061 49.7104 47.0461 49.7614 47.0966 49.827L48.6805 48.6057ZM60.8228 21.379C63.016 25.6176 64.4062 29.9687 64.4062 35H66.4062C66.4062 29.5687 64.8974 24.9015 62.5991 20.4598L60.8228 21.379ZM24.2604 30C24.2604 31.6569 22.9173 33 21.2604 33V35C24.0218 35 26.2604 32.7614 26.2604 30H24.2604ZM21.2604 33C19.6035 33 18.2604 31.6569 18.2604 30H16.2604C16.2604 32.7614 18.499 35 21.2604 35V33ZM18.2604 30C18.2604 28.3431 19.6035 27 21.2604 27V25C18.499 25 16.2604 27.2386 16.2604 30H18.2604ZM21.2604 27C22.9173 27 24.2604 28.3431 24.2604 30H26.2604C26.2604 27.2386 24.0218 25 21.2604 25V27ZM48.2604 30C48.2604 31.6569 46.9173 33 45.2604 33V35C48.0218 35 50.2604 32.7614 50.2604 30H48.2604ZM45.2604 33C43.6035 33 42.2604 31.6569 42.2604 30H40.2604C40.2604 32.7614 42.499 35 45.2604 35V33ZM42.2604 30C42.2604 28.3431 43.6035 27 45.2604 27V25C42.499 25 40.2604 27.2386 40.2604 30H42.2604ZM45.2604 27C46.9173 27 48.2604 28.3431 48.2604 30H50.2604C50.2604 27.2386 48.0218 25 45.2604 25V27ZM33.4062 4C36.256 4 38.9997 4.42491 41.6044 5.19307L42.1701 3.27475C39.3907 2.45505 36.4566 2 33.4062 2V4ZM41.4696 7.03292C41.7601 6.34775 42.2263 5.47743 42.7001 4.81642L41.0744 3.6514C40.5016 4.45065 39.9666 5.45408 39.6283 6.25231L41.4696 7.03292ZM42.7001 4.81642C42.8321 4.63213 42.9589 4.47244 43.0764 4.34189L41.59 3.00376C41.4115 3.20201 41.2385 3.42245 41.0744 3.6514L42.7001 4.81642Z" fill="white"/>
</svg>
